<?xml version="1.0" encoding="utf-8"?>
<!-- Generator: Adobe Illustrator 24.3.0, SVG Export Plug-In . SVG Version: 6.00 Build 0)  -->
<svg version="1.1" id="Calque_1" xmlns="http://www.w3.org/2000/svg" xmlns:xlink="http://www.w3.org/1999/xlink" x="0px" y="0px"
	 viewBox="0 0 164 36" style="enable-background:new 0 0 164 36;" xml:space="preserve">
<style type="text/css">
	.st0{fill:#005180;}
</style>
<g>
	<g>
		<path class="st0" d="M42,9.1h15.5v3.1H45.4v8.3h11v3.1h-11v10.8H42V9.1z"/>
		<path class="st0" d="M60.4,21.8c0-8.8,6.3-13.2,12.9-13.2c3.6,0,6.1,1,8.6,2.3v3.6c-2.8-1.8-5.5-2.7-8.6-2.7
			c-4.7,0-9.4,3.1-9.4,10s4.7,10,9.4,10c1.9,0,3.6-0.4,5.3-1.1V25h-8.8v-3.2h12.1v10.8c-2.5,1.3-5,2.3-8.6,2.3
			C66.7,35,60.4,30.6,60.4,21.8z"/>
		<path class="st0" d="M85.9,9.1h3.7l5.7,17.4l6.8-17.4h2.9l7,17.4l5.6-17.4h3.7l-9,25.9h-0.4l-8.4-20.6L95.3,35h-0.4L85.9,9.1z"/>
		<path class="st0" d="M139,34.5l-5.4-9.8h-5v9.8h-3.4V9.1h9.1c4.9,0,8.1,3.6,8.1,7.8c0,3.7-2.1,6.4-5.4,7.4l5.7,10.1
			C142.8,34.5,139,34.5,139,34.5z M128.6,21.5h5.4c3.3,0,4.9-2,4.9-4.6c0-2.7-2-4.7-4.9-4.7h-5.4V21.5z"/>
		<path class="st0" d="M163.7,27.6c0,3.8-3,7.4-8.5,7.4c-3.9,0-6.7-1.2-8.6-2.2v-3.4c2.1,1.2,5.4,2.5,8.6,2.5c3.6,0,4.9-1.9,4.9-4.3
			c0-1.8-1.3-3.5-3.8-4.1l-3.7-0.8c-3.8-0.8-6.2-3-6.2-7c0-3.9,3.2-7.2,9-7.2c2.9,0,5.1,0.7,7,1.5v3.5c-2.1-1.1-4.6-1.9-7-1.9
			c-3.3,0-5.5,1.6-5.5,4.1c0,2,1.1,3.3,3.3,3.7l3.8,0.8C161.3,21.2,163.7,23.8,163.7,27.6z"/>
	</g>
	<path class="st0" d="M14.8,1.4L14.4,1l-0.7-0.8L12.9,1l-0.4,0.4C4.3,10,0.3,16.9,0.3,22.4c0,7.3,6,13.3,13.3,13.3s13.3-6,13.3-13.3
		C26.9,16.9,23,10,14.8,1.4z M13.6,3.3c5.7,6,9.2,11.1,10.6,15.3c0,0,0,0,0,0c-1-1-2.4-1.6-3.9-1.6c-1.5,0-2.9,0.6-3.9,1.6l-6.6,6.6
		C9,25.8,8.1,26.2,7,26.2s-2-0.4-2.7-1.1s-1.1-1.7-1.1-2.7s0.4-2,1.1-2.7C5.1,19,6,18.6,7,18.6c0.9,0,1.8,0.3,2.4,0.9H8.1
		c-0.5,0-0.9,0.4-0.9,0.9s0.4,0.9,0.9,0.9h3.5c0.5,0,0.9-0.4,0.9-0.9v-3.5c0-0.5-0.4-0.9-0.9-0.9s-0.9,0.4-0.9,0.9v1.4
		c-2.2-1.9-5.5-1.9-7.6,0.2c0,0,0,0,0,0.1C4.5,14.3,7.9,9.3,13.6,3.3z M13.6,33.6c-4.8,0-8.9-3.1-10.5-7.3c0,0,0,0,0,0
		c1,1,2.4,1.6,3.9,1.6s2.9-0.6,3.9-1.6l6.6-6.6c0.7-0.7,1.7-1.1,2.7-1.1s2,0.4,2.7,1.1c0.7,0.7,1.1,1.7,1.1,2.7c0,1-0.4,2-1.1,2.7
		c-0.7,0.7-1.7,1.1-2.7,1.1c-0.9,0-1.8-0.3-2.4-0.9h1.4c0.5,0,0.9-0.4,0.9-0.9s-0.4-0.9-0.9-0.9h-3.5c-0.5,0-0.9,0.4-0.9,0.9v3.5
		c0,0.5,0.4,0.9,0.9,0.9c0.5,0,0.9-0.4,0.9-0.9v-1.4c1,0.9,2.3,1.4,3.7,1.4c1.5,0,2.9-0.6,3.9-1.6c0,0,0,0,0,0
		C22.6,30.6,18.5,33.6,13.6,33.6z"/>
</g>
</svg>
